<svg width="118" height="71" viewBox="0 0 118 71" fill="none" xmlns="http://www.w3.org/2000/svg">
<path d="M61.8605 50.3986H81.2671V34.4261H61.8605V50.3986ZM29.2574 56.5291H17.171V70.7648H29.2574V56.5291ZM29.2574 44.9788H17.171V49.3725H29.2574V44.9788ZM81.249 24.9589V0H0V70.7726H6.17648V42.7122C6.17648 38.3184 9.02278 35.4212 14.0918 35.4212H32.3858C37.4574 35.4212 40.3011 38.3107 40.3011 42.7122V70.7726H81.249V59.9614H60.4063C53.9763 59.9614 50.8324 56.7747 50.8324 50.3986V34.4261C50.8324 28.2387 54.3049 24.9589 60.0777 24.9589H81.249Z" fill="#E71D73"/>
<path d="M10.8911 5.37323C12.5023 5.37323 13.3079 6.23475 13.3079 7.95778V18.1667H10.578V13.941H8.60887V18.1667H5.88159V7.94485C5.88159 6.22182 6.68718 5.36462 8.29836 5.37323H10.8911ZM8.60887 11.8346H10.578V7.61145C10.5785 7.5108 10.5406 7.41375 10.4719 7.34007C10.4394 7.30355 10.3996 7.27431 10.355 7.25427C10.3104 7.23423 10.2621 7.22383 10.2131 7.22377H8.98148C8.93249 7.22333 8.884 7.2335 8.83933 7.25357C8.79466 7.27365 8.75488 7.30316 8.72272 7.34007C8.6522 7.41275 8.61316 7.51024 8.61404 7.61145L8.60887 11.8346Z" fill="white"/>
<path d="M23.3475 18.1667H20.6176V7.70966C20.6149 7.61349 20.5772 7.5216 20.5115 7.45121C20.4795 7.41396 20.4398 7.38405 20.3951 7.36354C20.3505 7.34302 20.3019 7.33237 20.2528 7.33232H19.1945C19.1452 7.33166 19.0964 7.34199 19.0516 7.36256C19.0069 7.38313 18.9673 7.41341 18.9357 7.45121C18.8683 7.52066 18.8295 7.61293 18.827 7.70966V18.1667H16.0972V7.94485C16.0972 6.22182 16.9028 5.36462 18.5139 5.37323H20.9307C22.5436 5.37323 23.3492 6.23475 23.3475 7.95778V18.1667Z" fill="white"/>
<path d="M24.6335 7.88542V5.55933H31.4569V7.88542H29.4102V18.1667H26.6803V7.88542H24.6335Z" fill="white"/>
<path d="M40.3269 7.94485V15.7915C40.3269 17.5059 39.5213 18.3623 37.9101 18.3606H35.3225C33.7096 18.3606 32.904 17.5042 32.9058 15.7915V7.94485C32.9058 6.22182 33.7114 5.36462 35.3225 5.37323H37.9101C39.523 5.37323 40.3286 6.23044 40.3269 7.94485ZM37.5996 16.1017V7.61145C37.6005 7.51024 37.5614 7.41275 37.4909 7.34007C37.4587 7.30316 37.419 7.27365 37.3743 7.25357C37.3296 7.2335 37.2811 7.22333 37.2321 7.22377H36.0056C35.9567 7.22383 35.9084 7.23423 35.8638 7.25427C35.8192 7.27431 35.7794 7.30355 35.7469 7.34007C35.6782 7.41375 35.6403 7.5108 35.6408 7.61145V16.1017C35.6396 16.2032 35.6776 16.3013 35.7469 16.3756C35.7794 16.4122 35.8192 16.4414 35.8638 16.4614C35.9084 16.4815 35.9567 16.4919 36.0056 16.4919H37.2321C37.2811 16.4924 37.3296 16.4822 37.3743 16.4621C37.419 16.4421 37.4587 16.4125 37.4909 16.3756C37.5618 16.3022 37.6009 16.2037 37.5996 16.1017V16.1017Z" fill="white"/>
<path d="M50.3486 18.1667H47.611V7.70966C47.6083 7.61349 47.5705 7.5216 47.5049 7.45121C47.4729 7.41396 47.4332 7.38405 47.3885 7.36354C47.3438 7.34302 47.2953 7.33237 47.2461 7.33232H46.193C46.1437 7.33166 46.0949 7.34199 46.0502 7.36256C46.0054 7.38313 45.9658 7.41341 45.9342 7.45121C45.8668 7.52066 45.828 7.61293 45.8256 7.70966V18.1667H43.0957V7.94485C43.0957 6.22182 43.9022 5.36462 45.5151 5.37323H47.9318C49.543 5.37323 50.3486 6.23475 50.3486 7.95778V18.1667Z" fill="white"/>
<path d="M55.6892 5.56714V18.1668H52.9619V5.56714H55.6892Z" fill="white"/>
<path d="M63.0016 5.56714H65.7237V15.7916C65.7237 17.4974 64.9198 18.3503 63.3121 18.3503H60.8953C59.2841 18.3503 58.4785 17.4974 58.4785 15.7916V5.56714H61.2058V16.0242C61.2048 16.1262 61.2438 16.2245 61.3145 16.2982C61.3466 16.3351 61.3864 16.3646 61.4311 16.3847C61.4757 16.4047 61.5242 16.4149 61.5732 16.4145H62.6186C62.6675 16.4146 62.7159 16.4042 62.7605 16.3842C62.8052 16.3641 62.845 16.3348 62.8773 16.2982C62.948 16.2245 62.987 16.1262 62.986 16.0242L63.0016 5.56714Z" fill="white"/>
<path d="M75.3598 8.87787H72.7723V7.88541C72.7724 7.78406 72.7346 7.68633 72.6662 7.61145C72.6337 7.57493 72.5939 7.54569 72.5493 7.52565C72.5047 7.5056 72.4563 7.49521 72.4074 7.49514H71.3362C71.2873 7.49504 71.2389 7.50536 71.1942 7.52542C71.1496 7.54547 71.1098 7.5748 71.0774 7.61145C71.0079 7.68563 70.9699 7.78382 70.9713 7.88541V10.1236C70.9691 10.2254 71.0072 10.3239 71.0774 10.3976C71.1098 10.4342 71.1496 10.4636 71.1942 10.4836C71.2389 10.5037 71.2873 10.514 71.3362 10.5139H73.0905C74.7 10.5397 75.5056 11.4013 75.5073 13.0984V15.7915C75.5073 17.5059 74.7017 18.3623 73.0905 18.3606H70.7902C69.1773 18.3606 68.3709 17.5042 68.3709 15.7915V14.4863H70.9584V15.8897C70.9565 15.9906 70.9947 16.0882 71.0645 16.1611C71.0969 16.1978 71.1367 16.2271 71.1813 16.2471C71.2259 16.2672 71.2743 16.2775 71.3232 16.2774H72.5316C72.5805 16.2774 72.6289 16.267 72.6735 16.2469C72.7181 16.2269 72.7579 16.1976 72.7904 16.1611C72.859 16.0874 72.897 15.9904 72.8965 15.8897V13.4163C72.8976 13.3148 72.8597 13.2167 72.7904 13.1424C72.7579 13.1059 72.7181 13.0766 72.6735 13.0566C72.6289 13.0365 72.5805 13.0261 72.5316 13.0261H70.7773C69.1644 13.0261 68.3579 12.1689 68.3579 10.4544V7.94485C68.3579 6.22182 69.1644 5.36462 70.7773 5.37323H72.9405C74.5534 5.37323 75.359 6.23475 75.3572 7.95778L75.3598 8.87787Z" fill="white"/>
<path d="M118 0H86.5898V71H118V0Z" fill="#00AFD3"/>
<path d="M98.2079 10.2891H100.206V12.9408H98.5288C96.7727 12.9408 95.8938 12.1163 95.8921 10.4674V7.95522C95.8921 6.30628 96.771 5.48181 98.5288 5.48181H106.576C108.334 5.48181 109.212 6.30628 109.21 7.95522V10.4674C109.21 12.1163 108.332 12.9408 106.576 12.9408H105.357V10.2891H106.91C107.014 10.2891 107.114 10.2493 107.189 10.1779C107.226 10.1456 107.256 10.1059 107.276 10.0614C107.297 10.0168 107.308 9.96849 107.308 9.91947V8.65305C107.308 8.60403 107.297 8.55568 107.276 8.51115C107.256 8.46662 107.226 8.4269 107.189 8.39459C107.114 8.32227 107.014 8.28234 106.91 8.28346H98.2079C98.1567 8.28268 98.1058 8.2921 98.0583 8.31119C98.0108 8.33027 97.9675 8.35862 97.9311 8.39459C97.8938 8.42677 97.8638 8.46641 97.8428 8.51093C97.8219 8.55545 97.8105 8.60386 97.8095 8.65305V9.90913C97.8105 9.95832 97.8219 10.0067 97.8428 10.0513C97.8638 10.0958 97.8938 10.1354 97.9311 10.1676C98.0036 10.2431 98.1032 10.2868 98.2079 10.2891Z" fill="white"/>
<path d="M106.576 22.6122H98.5288C96.7727 22.6122 95.8938 21.7878 95.8921 20.1388V17.4871C95.8921 15.8381 96.771 15.0137 98.5288 15.0137H106.576C108.334 15.0137 109.212 15.8381 109.21 17.4871V20.1388C109.21 21.7878 108.332 22.6122 106.576 22.6122ZM98.2079 19.8209H106.915C107.019 19.822 107.12 19.7821 107.195 19.7098C107.231 19.6775 107.261 19.6378 107.282 19.5932C107.302 19.5487 107.313 19.5003 107.314 19.4513V18.1849C107.313 18.1359 107.302 18.0875 107.282 18.043C107.261 17.9985 107.231 17.9588 107.195 17.9265C107.119 17.8558 107.019 17.8169 106.915 17.8179H98.2079C98.105 17.8165 98.0056 17.8555 97.9311 17.9265C97.8938 17.9586 97.8638 17.9983 97.8428 18.0428C97.8219 18.0873 97.8105 18.1357 97.8095 18.1849V19.441C97.8105 19.4902 97.8219 19.5386 97.8428 19.5831C97.8638 19.6276 97.8938 19.6673 97.9311 19.6995C97.9667 19.7373 98.0095 19.7676 98.0571 19.7884C98.1047 19.8093 98.156 19.8204 98.2079 19.8209V19.8209Z" fill="white"/>
<path d="M98.4484 28.0372V31.0895H96.0938V25.2458H109.011V28.0372H98.4484Z" fill="white"/>
<path d="M98.4484 35.7753V38.8251H96.0938V32.984H109.011V35.7753H98.4484Z" fill="white"/>
<path d="M98.4096 43.534V46.6355H96.0938V40.7401H109.011V46.6251H106.736V43.5237H103.701V46.4132H101.504V43.534H98.4096Z" fill="white"/>
<path d="M101.225 53.0064H103.282V56.6946H98.5288C96.7727 56.6946 95.8938 55.8701 95.8921 54.2212V51.709C95.8921 50.0601 96.771 49.2356 98.5288 49.2356H106.576C108.334 49.2356 109.212 50.0601 109.21 51.709V54.2212C109.21 55.8701 108.332 56.6946 106.576 56.6946H105.357V54.0428H106.91C107.014 54.044 107.114 54.004 107.189 53.9317C107.226 53.8994 107.256 53.8597 107.276 53.8152C107.297 53.7706 107.308 53.7223 107.308 53.6733V52.4172C107.308 52.3682 107.297 52.3198 107.276 52.2753C107.256 52.2307 107.226 52.191 107.189 52.1587C107.114 52.088 107.014 52.0492 106.91 52.0502H98.2079C98.105 52.0488 98.0056 52.0877 97.9311 52.1587C97.8938 52.1909 97.8638 52.2305 97.8428 52.275C97.8219 52.3196 97.8105 52.368 97.8095 52.4172V53.6733C97.8105 53.7224 97.8219 53.7709 97.8428 53.8154C97.8638 53.8599 97.8938 53.8995 97.9311 53.9317C97.9675 53.9677 98.0108 53.996 98.0583 54.0151C98.1058 54.0342 98.1567 54.0436 98.2079 54.0428H101.225V53.0064Z" fill="white"/>
<path d="M98.4096 62.2203V65.3217H96.0938V59.4264H109.011V65.3114H106.736V62.2099H103.701V65.1021H101.504V62.2203H98.4096Z" fill="white"/>
</svg>
